<svg width="1136" height="190" viewBox="0 0 1136 190" fill="none" xmlns="http://www.w3.org/2000/svg">
<path d="M0 141.001L95.14 119.301L135.992 181.218C139.96 187.232 147.458 189.852 154.308 187.618L231.161 162.551C235.004 161.297 239.179 161.545 242.846 163.243L284 182.301L374.15 121.279C377.366 119.101 381.265 118.169 385.119 118.654L473.57 129.801L517.008 110.22C519.709 109.002 522.02 107.058 523.681 104.604L563.428 45.9021C566.688 41.0875 572.303 38.4204 578.094 38.9355L663.14 46.5008L744.265 3.20196C751.737 -0.785995 761.022 1.73972 765.445 8.96302L798.802 63.4489C802.549 69.5692 809.913 72.4461 816.817 70.4867L852 60.5008L889.459 49.4765C895.594 47.6709 902.215 49.692 906.295 54.616L939.152 94.2626C943.845 99.9246 951.792 101.659 958.417 98.4671L1041.57 58.4008L1136.71 46.5008" stroke="#AF52DE" stroke-width="2" stroke-linecap="round" stroke-linejoin="round"/>
</svg>
